<svg xmlns="http://www.w3.org/2000/svg" viewBox="0 0 1 1">
  <defs>
    <clipPath id="blob" clipPathUnits="objectBoundingBox">
      <path
        d="M 0.5,0.05 C 0.85,0.05 0.95,0.3 0.9,0.6 C 0.85,0.85 0.55,0.95 0.3,0.9 C 0.05,0.8 0.05,0.45 0.15,0.25 C 0.25,0.1 0.4,0.05 0.5,0.05 Z"
      />
    </clipPath>
    <clipPath id="hex" clipPathUnits="objectBoundingBox">
      <polygon points="0.25,0.07 0.75,0.07 1,0.5 0.75,0.93 0.25,0.93 0,0.5" />
    </clipPath>
    <clipPath id="tag" clipPathUnits="objectBoundingBox">
      <polygon points="0,0.25 0.7,0.25 1,0.5 0.7,0.75 0,0.75" />
    </clipPath>
    <clipPath id="arrow" clipPathUnits="objectBoundingBox">
      <polygon points="0,0.3 0.65,0.3 0.65,0.1 1,0.5 0.65,0.9 0.65,0.7 0,0.7" />
    </clipPath>
    <clipPath id="flag" clipPathUnits="objectBoundingBox">
      <polygon points="0,0 1,0 1,0.8 0.5,1 0,0.8" />
    </clipPath>
    <clipPath id="burst" clipPathUnits="objectBoundingBox">
      <polygon
        points="0.5,0 0.6,0.2 0.9,0.15 0.75,0.4 1,0.5 0.75,0.6 0.9,0.85 0.6,0.8 0.5,1 0.4,0.8 0.1,0.85 0.25,0.6 0,0.5 0.25,0.4 0.1,0.15 0.4,0.2"
      />
    </clipPath>
  </defs>
</svg>
